<?xml version="1.0" encoding="utf-8" standalone="no"?>
<!DOCTYPE svg PUBLIC "-//W3C//DTD SVG 1.1//EN"
  "http://www.w3.org/Graphics/SVG/1.1/DTD/svg11.dtd">
<!-- Created with matplotlib (https://matplotlib.org/) -->
<svg height="325.986375pt" version="1.1" viewBox="0 0 636.961937 325.986375" width="636.961937pt" xmlns="http://www.w3.org/2000/svg" xmlns:xlink="http://www.w3.org/1999/xlink">
 <defs>
  <style type="text/css">
*{stroke-linecap:butt;stroke-linejoin:round;}
  </style>
 </defs>
 <g id="figure_1">
  <g id="patch_1">
   <path d="M 0 325.986375 
L 636.961937 325.986375 
L 636.961937 0 
L 0 0 
z
" style="fill:#ffffff;"/>
  </g>
  <g id="axes_1">
   <g id="patch_2">
    <path d="M 43.78125 288.430125 
L 400.90125 288.430125 
L 400.90125 22.318125 
L 43.78125 22.318125 
z
" style="fill:#ffffff;"/>
   </g>
   <g id="matplotlib.axis_1">
    <g id="xtick_1">
     <g id="line2d_1">
      <path clip-path="url(#pcd7d82f759)" d="M 60.013977 288.430125 
L 60.013977 22.318125 
" style="fill:none;stroke:#b0b0b0;stroke-dasharray:0.8,1.32;stroke-dashoffset:0;stroke-width:0.8;"/>
     </g>
     <g id="line2d_2">
      <defs>
       <path d="M 0 0 
L 0 3.5 
" id="md12da75b98" style="stroke:#000000;stroke-width:0.8;"/>
      </defs>
      <g>
       <use style="stroke:#000000;stroke-width:0.8;" x="60.013977" xlink:href="#md12da75b98" y="288.430125"/>
      </g>
     </g>
     <g id="text_1">
      <!-- 4 -->
      <defs>
       <path d="M 37.796875 64.3125 
L 12.890625 25.390625 
L 37.796875 25.390625 
z
M 35.203125 72.90625 
L 47.609375 72.90625 
L 47.609375 25.390625 
L 58.015625 25.390625 
L 58.015625 17.1875 
L 47.609375 17.1875 
L 47.609375 0 
L 37.796875 0 
L 37.796875 17.1875 
L 4.890625 17.1875 
L 4.890625 26.703125 
z
" id="DejaVuSans-52"/>
      </defs>
      <g transform="translate(56.832727 303.028562)scale(0.1 -0.1)">
       <use xlink:href="#DejaVuSans-52"/>
      </g>
     </g>
    </g>
    <g id="xtick_2">
     <g id="line2d_3">
      <path clip-path="url(#pcd7d82f759)" d="M 119.042076 288.430125 
L 119.042076 22.318125 
" style="fill:none;stroke:#b0b0b0;stroke-dasharray:0.8,1.32;stroke-dashoffset:0;stroke-width:0.8;"/>
     </g>
     <g id="line2d_4">
      <g>
       <use style="stroke:#000000;stroke-width:0.8;" x="119.042076" xlink:href="#md12da75b98" y="288.430125"/>
      </g>
     </g>
     <g id="text_2">
      <!-- 6 -->
      <defs>
       <path d="M 33.015625 40.375 
Q 26.375 40.375 22.484375 35.828125 
Q 18.609375 31.296875 18.609375 23.390625 
Q 18.609375 15.53125 22.484375 10.953125 
Q 26.375 6.390625 33.015625 6.390625 
Q 39.65625 6.390625 43.53125 10.953125 
Q 47.40625 15.53125 47.40625 23.390625 
Q 47.40625 31.296875 43.53125 35.828125 
Q 39.65625 40.375 33.015625 40.375 
z
M 52.59375 71.296875 
L 52.59375 62.3125 
Q 48.875 64.0625 45.09375 64.984375 
Q 41.3125 65.921875 37.59375 65.921875 
Q 27.828125 65.921875 22.671875 59.328125 
Q 17.53125 52.734375 16.796875 39.40625 
Q 19.671875 43.65625 24.015625 45.921875 
Q 28.375 48.1875 33.59375 48.1875 
Q 44.578125 48.1875 50.953125 41.515625 
Q 57.328125 34.859375 57.328125 23.390625 
Q 57.328125 12.15625 50.6875 5.359375 
Q 44.046875 -1.421875 33.015625 -1.421875 
Q 20.359375 -1.421875 13.671875 8.265625 
Q 6.984375 17.96875 6.984375 36.375 
Q 6.984375 53.65625 15.1875 63.9375 
Q 23.390625 74.21875 37.203125 74.21875 
Q 40.921875 74.21875 44.703125 73.484375 
Q 48.484375 72.75 52.59375 71.296875 
z
" id="DejaVuSans-54"/>
      </defs>
      <g transform="translate(115.860826 303.028562)scale(0.1 -0.1)">
       <use xlink:href="#DejaVuSans-54"/>
      </g>
     </g>
    </g>
    <g id="xtick_3">
     <g id="line2d_5">
      <path clip-path="url(#pcd7d82f759)" d="M 178.070176 288.430125 
L 178.070176 22.318125 
" style="fill:none;stroke:#b0b0b0;stroke-dasharray:0.8,1.32;stroke-dashoffset:0;stroke-width:0.8;"/>
     </g>
     <g id="line2d_6">
      <g>
       <use style="stroke:#000000;stroke-width:0.8;" x="178.070176" xlink:href="#md12da75b98" y="288.430125"/>
      </g>
     </g>
     <g id="text_3">
      <!-- 8 -->
      <defs>
       <path d="M 31.78125 34.625 
Q 24.75 34.625 20.71875 30.859375 
Q 16.703125 27.09375 16.703125 20.515625 
Q 16.703125 13.921875 20.71875 10.15625 
Q 24.75 6.390625 31.78125 6.390625 
Q 38.8125 6.390625 42.859375 10.171875 
Q 46.921875 13.96875 46.921875 20.515625 
Q 46.921875 27.09375 42.890625 30.859375 
Q 38.875 34.625 31.78125 34.625 
z
M 21.921875 38.8125 
Q 15.578125 40.375 12.03125 44.71875 
Q 8.5 49.078125 8.5 55.328125 
Q 8.5 64.0625 14.71875 69.140625 
Q 20.953125 74.21875 31.78125 74.21875 
Q 42.671875 74.21875 48.875 69.140625 
Q 55.078125 64.0625 55.078125 55.328125 
Q 55.078125 49.078125 51.53125 44.71875 
Q 48 40.375 41.703125 38.8125 
Q 48.828125 37.15625 52.796875 32.3125 
Q 56.78125 27.484375 56.78125 20.515625 
Q 56.78125 9.90625 50.3125 4.234375 
Q 43.84375 -1.421875 31.78125 -1.421875 
Q 19.734375 -1.421875 13.25 4.234375 
Q 6.78125 9.90625 6.78125 20.515625 
Q 6.78125 27.484375 10.78125 32.3125 
Q 14.796875 37.15625 21.921875 38.8125 
z
M 18.3125 54.390625 
Q 18.3125 48.734375 21.84375 45.5625 
Q 25.390625 42.390625 31.78125 42.390625 
Q 38.140625 42.390625 41.71875 45.5625 
Q 45.3125 48.734375 45.3125 54.390625 
Q 45.3125 60.0625 41.71875 63.234375 
Q 38.140625 66.40625 31.78125 66.40625 
Q 25.390625 66.40625 21.84375 63.234375 
Q 18.3125 60.0625 18.3125 54.390625 
z
" id="DejaVuSans-56"/>
      </defs>
      <g transform="translate(174.888926 303.028562)scale(0.1 -0.1)">
       <use xlink:href="#DejaVuSans-56"/>
      </g>
     </g>
    </g>
    <g id="xtick_4">
     <g id="line2d_7">
      <path clip-path="url(#pcd7d82f759)" d="M 237.098275 288.430125 
L 237.098275 22.318125 
" style="fill:none;stroke:#b0b0b0;stroke-dasharray:0.8,1.32;stroke-dashoffset:0;stroke-width:0.8;"/>
     </g>
     <g id="line2d_8">
      <g>
       <use style="stroke:#000000;stroke-width:0.8;" x="237.098275" xlink:href="#md12da75b98" y="288.430125"/>
      </g>
     </g>
     <g id="text_4">
      <!-- 10 -->
      <defs>
       <path d="M 12.40625 8.296875 
L 28.515625 8.296875 
L 28.515625 63.921875 
L 10.984375 60.40625 
L 10.984375 69.390625 
L 28.421875 72.90625 
L 38.28125 72.90625 
L 38.28125 8.296875 
L 54.390625 8.296875 
L 54.390625 0 
L 12.40625 0 
z
" id="DejaVuSans-49"/>
       <path d="M 31.78125 66.40625 
Q 24.171875 66.40625 20.328125 58.90625 
Q 16.5 51.421875 16.5 36.375 
Q 16.5 21.390625 20.328125 13.890625 
Q 24.171875 6.390625 31.78125 6.390625 
Q 39.453125 6.390625 43.28125 13.890625 
Q 47.125 21.390625 47.125 36.375 
Q 47.125 51.421875 43.28125 58.90625 
Q 39.453125 66.40625 31.78125 66.40625 
z
M 31.78125 74.21875 
Q 44.046875 74.21875 50.515625 64.515625 
Q 56.984375 54.828125 56.984375 36.375 
Q 56.984375 17.96875 50.515625 8.265625 
Q 44.046875 -1.421875 31.78125 -1.421875 
Q 19.53125 -1.421875 13.0625 8.265625 
Q 6.59375 17.96875 6.59375 36.375 
Q 6.59375 54.828125 13.0625 64.515625 
Q 19.53125 74.21875 31.78125 74.21875 
z
" id="DejaVuSans-48"/>
      </defs>
      <g transform="translate(230.735775 303.028562)scale(0.1 -0.1)">
       <use xlink:href="#DejaVuSans-49"/>
       <use x="63.623047" xlink:href="#DejaVuSans-48"/>
      </g>
     </g>
    </g>
    <g id="xtick_5">
     <g id="line2d_9">
      <path clip-path="url(#pcd7d82f759)" d="M 296.126374 288.430125 
L 296.126374 22.318125 
" style="fill:none;stroke:#b0b0b0;stroke-dasharray:0.8,1.32;stroke-dashoffset:0;stroke-width:0.8;"/>
     </g>
     <g id="line2d_10">
      <g>
       <use style="stroke:#000000;stroke-width:0.8;" x="296.126374" xlink:href="#md12da75b98" y="288.430125"/>
      </g>
     </g>
     <g id="text_5">
      <!-- 12 -->
      <defs>
       <path d="M 19.1875 8.296875 
L 53.609375 8.296875 
L 53.609375 0 
L 7.328125 0 
L 7.328125 8.296875 
Q 12.9375 14.109375 22.625 23.890625 
Q 32.328125 33.6875 34.8125 36.53125 
Q 39.546875 41.84375 41.421875 45.53125 
Q 43.3125 49.21875 43.3125 52.78125 
Q 43.3125 58.59375 39.234375 62.25 
Q 35.15625 65.921875 28.609375 65.921875 
Q 23.96875 65.921875 18.8125 64.3125 
Q 13.671875 62.703125 7.8125 59.421875 
L 7.8125 69.390625 
Q 13.765625 71.78125 18.9375 73 
Q 24.125 74.21875 28.421875 74.21875 
Q 39.75 74.21875 46.484375 68.546875 
Q 53.21875 62.890625 53.21875 53.421875 
Q 53.21875 48.921875 51.53125 44.890625 
Q 49.859375 40.875 45.40625 35.40625 
Q 44.1875 33.984375 37.640625 27.21875 
Q 31.109375 20.453125 19.1875 8.296875 
z
" id="DejaVuSans-50"/>
      </defs>
      <g transform="translate(289.763874 303.028562)scale(0.1 -0.1)">
       <use xlink:href="#DejaVuSans-49"/>
       <use x="63.623047" xlink:href="#DejaVuSans-50"/>
      </g>
     </g>
    </g>
    <g id="xtick_6">
     <g id="line2d_11">
      <path clip-path="url(#pcd7d82f759)" d="M 355.154473 288.430125 
L 355.154473 22.318125 
" style="fill:none;stroke:#b0b0b0;stroke-dasharray:0.8,1.32;stroke-dashoffset:0;stroke-width:0.8;"/>
     </g>
     <g id="line2d_12">
      <g>
       <use style="stroke:#000000;stroke-width:0.8;" x="355.154473" xlink:href="#md12da75b98" y="288.430125"/>
      </g>
     </g>
     <g id="text_6">
      <!-- 14 -->
      <g transform="translate(348.791973 303.028562)scale(0.1 -0.1)">
       <use xlink:href="#DejaVuSans-49"/>
       <use x="63.623047" xlink:href="#DejaVuSans-52"/>
      </g>
     </g>
    </g>
    <g id="text_7">
     <!-- Size of Set -->
     <defs>
      <path d="M 53.515625 70.515625 
L 53.515625 60.890625 
Q 47.90625 63.578125 42.921875 64.890625 
Q 37.9375 66.21875 33.296875 66.21875 
Q 25.25 66.21875 20.875 63.09375 
Q 16.5 59.96875 16.5 54.203125 
Q 16.5 49.359375 19.40625 46.890625 
Q 22.3125 44.4375 30.421875 42.921875 
L 36.375 41.703125 
Q 47.40625 39.59375 52.65625 34.296875 
Q 57.90625 29 57.90625 20.125 
Q 57.90625 9.515625 50.796875 4.046875 
Q 43.703125 -1.421875 29.984375 -1.421875 
Q 24.8125 -1.421875 18.96875 -0.25 
Q 13.140625 0.921875 6.890625 3.21875 
L 6.890625 13.375 
Q 12.890625 10.015625 18.65625 8.296875 
Q 24.421875 6.59375 29.984375 6.59375 
Q 38.421875 6.59375 43.015625 9.90625 
Q 47.609375 13.234375 47.609375 19.390625 
Q 47.609375 24.75 44.3125 27.78125 
Q 41.015625 30.8125 33.5 32.328125 
L 27.484375 33.5 
Q 16.453125 35.6875 11.515625 40.375 
Q 6.59375 45.0625 6.59375 53.421875 
Q 6.59375 63.09375 13.40625 68.65625 
Q 20.21875 74.21875 32.171875 74.21875 
Q 37.3125 74.21875 42.625 73.28125 
Q 47.953125 72.359375 53.515625 70.515625 
z
" id="DejaVuSans-83"/>
      <path d="M 9.421875 54.6875 
L 18.40625 54.6875 
L 18.40625 0 
L 9.421875 0 
z
M 9.421875 75.984375 
L 18.40625 75.984375 
L 18.40625 64.59375 
L 9.421875 64.59375 
z
" id="DejaVuSans-105"/>
      <path d="M 5.515625 54.6875 
L 48.1875 54.6875 
L 48.1875 46.484375 
L 14.40625 7.171875 
L 48.1875 7.171875 
L 48.1875 0 
L 4.296875 0 
L 4.296875 8.203125 
L 38.09375 47.515625 
L 5.515625 47.515625 
z
" id="DejaVuSans-122"/>
      <path d="M 56.203125 29.59375 
L 56.203125 25.203125 
L 14.890625 25.203125 
Q 15.484375 15.921875 20.484375 11.0625 
Q 25.484375 6.203125 34.421875 6.203125 
Q 39.59375 6.203125 44.453125 7.46875 
Q 49.3125 8.734375 54.109375 11.28125 
L 54.109375 2.78125 
Q 49.265625 0.734375 44.1875 -0.34375 
Q 39.109375 -1.421875 33.890625 -1.421875 
Q 20.796875 -1.421875 13.15625 6.1875 
Q 5.515625 13.8125 5.515625 26.8125 
Q 5.515625 40.234375 12.765625 48.109375 
Q 20.015625 56 32.328125 56 
Q 43.359375 56 49.78125 48.890625 
Q 56.203125 41.796875 56.203125 29.59375 
z
M 47.21875 32.234375 
Q 47.125 39.59375 43.09375 43.984375 
Q 39.0625 48.390625 32.421875 48.390625 
Q 24.90625 48.390625 20.390625 44.140625 
Q 15.875 39.890625 15.1875 32.171875 
z
" id="DejaVuSans-101"/>
      <path id="DejaVuSans-32"/>
      <path d="M 30.609375 48.390625 
Q 23.390625 48.390625 19.1875 42.75 
Q 14.984375 37.109375 14.984375 27.296875 
Q 14.984375 17.484375 19.15625 11.84375 
Q 23.34375 6.203125 30.609375 6.203125 
Q 37.796875 6.203125 41.984375 11.859375 
Q 46.1875 17.53125 46.1875 27.296875 
Q 46.1875 37.015625 41.984375 42.703125 
Q 37.796875 48.390625 30.609375 48.390625 
z
M 30.609375 56 
Q 42.328125 56 49.015625 48.375 
Q 55.71875 40.765625 55.71875 27.296875 
Q 55.71875 13.875 49.015625 6.21875 
Q 42.328125 -1.421875 30.609375 -1.421875 
Q 18.84375 -1.421875 12.171875 6.21875 
Q 5.515625 13.875 5.515625 27.296875 
Q 5.515625 40.765625 12.171875 48.375 
Q 18.84375 56 30.609375 56 
z
" id="DejaVuSans-111"/>
      <path d="M 37.109375 75.984375 
L 37.109375 68.5 
L 28.515625 68.5 
Q 23.6875 68.5 21.796875 66.546875 
Q 19.921875 64.59375 19.921875 59.515625 
L 19.921875 54.6875 
L 34.71875 54.6875 
L 34.71875 47.703125 
L 19.921875 47.703125 
L 19.921875 0 
L 10.890625 0 
L 10.890625 47.703125 
L 2.296875 47.703125 
L 2.296875 54.6875 
L 10.890625 54.6875 
L 10.890625 58.5 
Q 10.890625 67.625 15.140625 71.796875 
Q 19.390625 75.984375 28.609375 75.984375 
z
" id="DejaVuSans-102"/>
      <path d="M 18.3125 70.21875 
L 18.3125 54.6875 
L 36.8125 54.6875 
L 36.8125 47.703125 
L 18.3125 47.703125 
L 18.3125 18.015625 
Q 18.3125 11.328125 20.140625 9.421875 
Q 21.96875 7.515625 27.59375 7.515625 
L 36.8125 7.515625 
L 36.8125 0 
L 27.59375 0 
Q 17.1875 0 13.234375 3.875 
Q 9.28125 7.765625 9.28125 18.015625 
L 9.28125 47.703125 
L 2.6875 47.703125 
L 2.6875 54.6875 
L 9.28125 54.6875 
L 9.28125 70.21875 
z
" id="DejaVuSans-116"/>
     </defs>
     <g transform="translate(195.868594 316.706687)scale(0.1 -0.1)">
      <use xlink:href="#DejaVuSans-83"/>
      <use x="63.476562" xlink:href="#DejaVuSans-105"/>
      <use x="91.259766" xlink:href="#DejaVuSans-122"/>
      <use x="143.75" xlink:href="#DejaVuSans-101"/>
      <use x="205.273438" xlink:href="#DejaVuSans-32"/>
      <use x="237.060547" xlink:href="#DejaVuSans-111"/>
      <use x="298.242188" xlink:href="#DejaVuSans-102"/>
      <use x="333.447266" xlink:href="#DejaVuSans-32"/>
      <use x="365.234375" xlink:href="#DejaVuSans-83"/>
      <use x="428.710938" xlink:href="#DejaVuSans-101"/>
      <use x="490.234375" xlink:href="#DejaVuSans-116"/>
     </g>
    </g>
   </g>
   <g id="matplotlib.axis_2">
    <g id="ytick_1">
     <g id="line2d_13">
      <path clip-path="url(#pcd7d82f759)" d="M 43.78125 276.339097 
L 400.90125 276.339097 
" style="fill:none;stroke:#b0b0b0;stroke-dasharray:0.8,1.32;stroke-dashoffset:0;stroke-width:0.8;"/>
     </g>
     <g id="line2d_14">
      <defs>
       <path d="M 0 0 
L -3.5 0 
" id="m583a66a9cc" style="stroke:#000000;stroke-width:0.8;"/>
      </defs>
      <g>
       <use style="stroke:#000000;stroke-width:0.8;" x="43.78125" xlink:href="#m583a66a9cc" y="276.339097"/>
      </g>
     </g>
     <g id="text_8">
      <!-- 0.0 -->
      <defs>
       <path d="M 10.6875 12.40625 
L 21 12.40625 
L 21 0 
L 10.6875 0 
z
" id="DejaVuSans-46"/>
      </defs>
      <g transform="translate(20.878125 280.138316)scale(0.1 -0.1)">
       <use xlink:href="#DejaVuSans-48"/>
       <use x="63.623047" xlink:href="#DejaVuSans-46"/>
       <use x="95.410156" xlink:href="#DejaVuSans-48"/>
      </g>
     </g>
    </g>
    <g id="ytick_2">
     <g id="line2d_15">
      <path clip-path="url(#pcd7d82f759)" d="M 43.78125 242.490135 
L 400.90125 242.490135 
" style="fill:none;stroke:#b0b0b0;stroke-dasharray:0.8,1.32;stroke-dashoffset:0;stroke-width:0.8;"/>
     </g>
     <g id="line2d_16">
      <g>
       <use style="stroke:#000000;stroke-width:0.8;" x="43.78125" xlink:href="#m583a66a9cc" y="242.490135"/>
      </g>
     </g>
     <g id="text_9">
      <!-- 0.5 -->
      <defs>
       <path d="M 10.796875 72.90625 
L 49.515625 72.90625 
L 49.515625 64.59375 
L 19.828125 64.59375 
L 19.828125 46.734375 
Q 21.96875 47.46875 24.109375 47.828125 
Q 26.265625 48.1875 28.421875 48.1875 
Q 40.625 48.1875 47.75 41.5 
Q 54.890625 34.8125 54.890625 23.390625 
Q 54.890625 11.625 47.5625 5.09375 
Q 40.234375 -1.421875 26.90625 -1.421875 
Q 22.3125 -1.421875 17.546875 -0.640625 
Q 12.796875 0.140625 7.71875 1.703125 
L 7.71875 11.625 
Q 12.109375 9.234375 16.796875 8.0625 
Q 21.484375 6.890625 26.703125 6.890625 
Q 35.15625 6.890625 40.078125 11.328125 
Q 45.015625 15.765625 45.015625 23.390625 
Q 45.015625 31 40.078125 35.4375 
Q 35.15625 39.890625 26.703125 39.890625 
Q 22.75 39.890625 18.8125 39.015625 
Q 14.890625 38.140625 10.796875 36.28125 
z
" id="DejaVuSans-53"/>
      </defs>
      <g transform="translate(20.878125 246.289354)scale(0.1 -0.1)">
       <use xlink:href="#DejaVuSans-48"/>
       <use x="63.623047" xlink:href="#DejaVuSans-46"/>
       <use x="95.410156" xlink:href="#DejaVuSans-53"/>
      </g>
     </g>
    </g>
    <g id="ytick_3">
     <g id="line2d_17">
      <path clip-path="url(#pcd7d82f759)" d="M 43.78125 208.641172 
L 400.90125 208.641172 
" style="fill:none;stroke:#b0b0b0;stroke-dasharray:0.8,1.32;stroke-dashoffset:0;stroke-width:0.8;"/>
     </g>
     <g id="line2d_18">
      <g>
       <use style="stroke:#000000;stroke-width:0.8;" x="43.78125" xlink:href="#m583a66a9cc" y="208.641172"/>
      </g>
     </g>
     <g id="text_10">
      <!-- 1.0 -->
      <g transform="translate(20.878125 212.440391)scale(0.1 -0.1)">
       <use xlink:href="#DejaVuSans-49"/>
       <use x="63.623047" xlink:href="#DejaVuSans-46"/>
       <use x="95.410156" xlink:href="#DejaVuSans-48"/>
      </g>
     </g>
    </g>
    <g id="ytick_4">
     <g id="line2d_19">
      <path clip-path="url(#pcd7d82f759)" d="M 43.78125 174.79221 
L 400.90125 174.79221 
" style="fill:none;stroke:#b0b0b0;stroke-dasharray:0.8,1.32;stroke-dashoffset:0;stroke-width:0.8;"/>
     </g>
     <g id="line2d_20">
      <g>
       <use style="stroke:#000000;stroke-width:0.8;" x="43.78125" xlink:href="#m583a66a9cc" y="174.79221"/>
      </g>
     </g>
     <g id="text_11">
      <!-- 1.5 -->
      <g transform="translate(20.878125 178.591429)scale(0.1 -0.1)">
       <use xlink:href="#DejaVuSans-49"/>
       <use x="63.623047" xlink:href="#DejaVuSans-46"/>
       <use x="95.410156" xlink:href="#DejaVuSans-53"/>
      </g>
     </g>
    </g>
    <g id="ytick_5">
     <g id="line2d_21">
      <path clip-path="url(#pcd7d82f759)" d="M 43.78125 140.943248 
L 400.90125 140.943248 
" style="fill:none;stroke:#b0b0b0;stroke-dasharray:0.8,1.32;stroke-dashoffset:0;stroke-width:0.8;"/>
     </g>
     <g id="line2d_22">
      <g>
       <use style="stroke:#000000;stroke-width:0.8;" x="43.78125" xlink:href="#m583a66a9cc" y="140.943248"/>
      </g>
     </g>
     <g id="text_12">
      <!-- 2.0 -->
      <g transform="translate(20.878125 144.742466)scale(0.1 -0.1)">
       <use xlink:href="#DejaVuSans-50"/>
       <use x="63.623047" xlink:href="#DejaVuSans-46"/>
       <use x="95.410156" xlink:href="#DejaVuSans-48"/>
      </g>
     </g>
    </g>
    <g id="ytick_6">
     <g id="line2d_23">
      <path clip-path="url(#pcd7d82f759)" d="M 43.78125 107.094285 
L 400.90125 107.094285 
" style="fill:none;stroke:#b0b0b0;stroke-dasharray:0.8,1.32;stroke-dashoffset:0;stroke-width:0.8;"/>
     </g>
     <g id="line2d_24">
      <g>
       <use style="stroke:#000000;stroke-width:0.8;" x="43.78125" xlink:href="#m583a66a9cc" y="107.094285"/>
      </g>
     </g>
     <g id="text_13">
      <!-- 2.5 -->
      <g transform="translate(20.878125 110.893504)scale(0.1 -0.1)">
       <use xlink:href="#DejaVuSans-50"/>
       <use x="63.623047" xlink:href="#DejaVuSans-46"/>
       <use x="95.410156" xlink:href="#DejaVuSans-53"/>
      </g>
     </g>
    </g>
    <g id="ytick_7">
     <g id="line2d_25">
      <path clip-path="url(#pcd7d82f759)" d="M 43.78125 73.245323 
L 400.90125 73.245323 
" style="fill:none;stroke:#b0b0b0;stroke-dasharray:0.8,1.32;stroke-dashoffset:0;stroke-width:0.8;"/>
     </g>
     <g id="line2d_26">
      <g>
       <use style="stroke:#000000;stroke-width:0.8;" x="43.78125" xlink:href="#m583a66a9cc" y="73.245323"/>
      </g>
     </g>
     <g id="text_14">
      <!-- 3.0 -->
      <defs>
       <path d="M 40.578125 39.3125 
Q 47.65625 37.796875 51.625 33 
Q 55.609375 28.21875 55.609375 21.1875 
Q 55.609375 10.40625 48.1875 4.484375 
Q 40.765625 -1.421875 27.09375 -1.421875 
Q 22.515625 -1.421875 17.65625 -0.515625 
Q 12.796875 0.390625 7.625 2.203125 
L 7.625 11.71875 
Q 11.71875 9.328125 16.59375 8.109375 
Q 21.484375 6.890625 26.8125 6.890625 
Q 36.078125 6.890625 40.9375 10.546875 
Q 45.796875 14.203125 45.796875 21.1875 
Q 45.796875 27.640625 41.28125 31.265625 
Q 36.765625 34.90625 28.71875 34.90625 
L 20.21875 34.90625 
L 20.21875 43.015625 
L 29.109375 43.015625 
Q 36.375 43.015625 40.234375 45.921875 
Q 44.09375 48.828125 44.09375 54.296875 
Q 44.09375 59.90625 40.109375 62.90625 
Q 36.140625 65.921875 28.71875 65.921875 
Q 24.65625 65.921875 20.015625 65.03125 
Q 15.375 64.15625 9.8125 62.3125 
L 9.8125 71.09375 
Q 15.4375 72.65625 20.34375 73.4375 
Q 25.25 74.21875 29.59375 74.21875 
Q 40.828125 74.21875 47.359375 69.109375 
Q 53.90625 64.015625 53.90625 55.328125 
Q 53.90625 49.265625 50.4375 45.09375 
Q 46.96875 40.921875 40.578125 39.3125 
z
" id="DejaVuSans-51"/>
      </defs>
      <g transform="translate(20.878125 77.044541)scale(0.1 -0.1)">
       <use xlink:href="#DejaVuSans-51"/>
       <use x="63.623047" xlink:href="#DejaVuSans-46"/>
       <use x="95.410156" xlink:href="#DejaVuSans-48"/>
      </g>
     </g>
    </g>
    <g id="ytick_8">
     <g id="line2d_27">
      <path clip-path="url(#pcd7d82f759)" d="M 43.78125 39.39636 
L 400.90125 39.39636 
" style="fill:none;stroke:#b0b0b0;stroke-dasharray:0.8,1.32;stroke-dashoffset:0;stroke-width:0.8;"/>
     </g>
     <g id="line2d_28">
      <g>
       <use style="stroke:#000000;stroke-width:0.8;" x="43.78125" xlink:href="#m583a66a9cc" y="39.39636"/>
      </g>
     </g>
     <g id="text_15">
      <!-- 3.5 -->
      <g transform="translate(20.878125 43.195579)scale(0.1 -0.1)">
       <use xlink:href="#DejaVuSans-51"/>
       <use x="63.623047" xlink:href="#DejaVuSans-46"/>
       <use x="95.410156" xlink:href="#DejaVuSans-53"/>
      </g>
     </g>
    </g>
    <g id="text_16">
     <!-- Time (ns) -->
     <defs>
      <path d="M -0.296875 72.90625 
L 61.375 72.90625 
L 61.375 64.59375 
L 35.5 64.59375 
L 35.5 0 
L 25.59375 0 
L 25.59375 64.59375 
L -0.296875 64.59375 
z
" id="DejaVuSans-84"/>
      <path d="M 52 44.1875 
Q 55.375 50.25 60.0625 53.125 
Q 64.75 56 71.09375 56 
Q 79.640625 56 84.28125 50.015625 
Q 88.921875 44.046875 88.921875 33.015625 
L 88.921875 0 
L 79.890625 0 
L 79.890625 32.71875 
Q 79.890625 40.578125 77.09375 44.375 
Q 74.3125 48.1875 68.609375 48.1875 
Q 61.625 48.1875 57.5625 43.546875 
Q 53.515625 38.921875 53.515625 30.90625 
L 53.515625 0 
L 44.484375 0 
L 44.484375 32.71875 
Q 44.484375 40.625 41.703125 44.40625 
Q 38.921875 48.1875 33.109375 48.1875 
Q 26.21875 48.1875 22.15625 43.53125 
Q 18.109375 38.875 18.109375 30.90625 
L 18.109375 0 
L 9.078125 0 
L 9.078125 54.6875 
L 18.109375 54.6875 
L 18.109375 46.1875 
Q 21.1875 51.21875 25.484375 53.609375 
Q 29.78125 56 35.6875 56 
Q 41.65625 56 45.828125 52.96875 
Q 50 49.953125 52 44.1875 
z
" id="DejaVuSans-109"/>
      <path d="M 31 75.875 
Q 24.46875 64.65625 21.28125 53.65625 
Q 18.109375 42.671875 18.109375 31.390625 
Q 18.109375 20.125 21.3125 9.0625 
Q 24.515625 -2 31 -13.1875 
L 23.1875 -13.1875 
Q 15.875 -1.703125 12.234375 9.375 
Q 8.59375 20.453125 8.59375 31.390625 
Q 8.59375 42.28125 12.203125 53.3125 
Q 15.828125 64.359375 23.1875 75.875 
z
" id="DejaVuSans-40"/>
      <path d="M 54.890625 33.015625 
L 54.890625 0 
L 45.90625 0 
L 45.90625 32.71875 
Q 45.90625 40.484375 42.875 44.328125 
Q 39.84375 48.1875 33.796875 48.1875 
Q 26.515625 48.1875 22.3125 43.546875 
Q 18.109375 38.921875 18.109375 30.90625 
L 18.109375 0 
L 9.078125 0 
L 9.078125 54.6875 
L 18.109375 54.6875 
L 18.109375 46.1875 
Q 21.34375 51.125 25.703125 53.5625 
Q 30.078125 56 35.796875 56 
Q 45.21875 56 50.046875 50.171875 
Q 54.890625 44.34375 54.890625 33.015625 
z
" id="DejaVuSans-110"/>
      <path d="M 44.28125 53.078125 
L 44.28125 44.578125 
Q 40.484375 46.53125 36.375 47.5 
Q 32.28125 48.484375 27.875 48.484375 
Q 21.1875 48.484375 17.84375 46.4375 
Q 14.5 44.390625 14.5 40.28125 
Q 14.5 37.15625 16.890625 35.375 
Q 19.28125 33.59375 26.515625 31.984375 
L 29.59375 31.296875 
Q 39.15625 29.25 43.1875 25.515625 
Q 47.21875 21.78125 47.21875 15.09375 
Q 47.21875 7.46875 41.1875 3.015625 
Q 35.15625 -1.421875 24.609375 -1.421875 
Q 20.21875 -1.421875 15.453125 -0.5625 
Q 10.6875 0.296875 5.421875 2 
L 5.421875 11.28125 
Q 10.40625 8.6875 15.234375 7.390625 
Q 20.0625 6.109375 24.8125 6.109375 
Q 31.15625 6.109375 34.5625 8.28125 
Q 37.984375 10.453125 37.984375 14.40625 
Q 37.984375 18.0625 35.515625 20.015625 
Q 33.0625 21.96875 24.703125 23.78125 
L 21.578125 24.515625 
Q 13.234375 26.265625 9.515625 29.90625 
Q 5.8125 33.546875 5.8125 39.890625 
Q 5.8125 47.609375 11.28125 51.796875 
Q 16.75 56 26.8125 56 
Q 31.78125 56 36.171875 55.265625 
Q 40.578125 54.546875 44.28125 53.078125 
z
" id="DejaVuSans-115"/>
      <path d="M 8.015625 75.875 
L 15.828125 75.875 
Q 23.140625 64.359375 26.78125 53.3125 
Q 30.421875 42.28125 30.421875 31.390625 
Q 30.421875 20.453125 26.78125 9.375 
Q 23.140625 -1.703125 15.828125 -13.1875 
L 8.015625 -13.1875 
Q 14.5 -2 17.703125 9.0625 
Q 20.90625 20.125 20.90625 31.390625 
Q 20.90625 42.671875 17.703125 53.65625 
Q 14.5 64.65625 8.015625 75.875 
z
" id="DejaVuSans-41"/>
     </defs>
     <g transform="translate(14.798438 178.871781)rotate(-90)scale(0.1 -0.1)">
      <use xlink:href="#DejaVuSans-84"/>
      <use x="57.958984" xlink:href="#DejaVuSans-105"/>
      <use x="85.742188" xlink:href="#DejaVuSans-109"/>
      <use x="183.154297" xlink:href="#DejaVuSans-101"/>
      <use x="244.677734" xlink:href="#DejaVuSans-32"/>
      <use x="276.464844" xlink:href="#DejaVuSans-40"/>
      <use x="315.478516" xlink:href="#DejaVuSans-110"/>
      <use x="378.857422" xlink:href="#DejaVuSans-115"/>
      <use x="430.957031" xlink:href="#DejaVuSans-41"/>
     </g>
    </g>
    <g id="text_17">
     <!-- 1e7 -->
     <defs>
      <path d="M 8.203125 72.90625 
L 55.078125 72.90625 
L 55.078125 68.703125 
L 28.609375 0 
L 18.3125 0 
L 43.21875 64.59375 
L 8.203125 64.59375 
z
" id="DejaVuSans-55"/>
     </defs>
     <g transform="translate(43.78125 19.318125)scale(0.1 -0.1)">
      <use xlink:href="#DejaVuSans-49"/>
      <use x="63.623047" xlink:href="#DejaVuSans-101"/>
      <use x="125.146484" xlink:href="#DejaVuSans-55"/>
     </g>
    </g>
   </g>
   <g id="LineCollection_1">
    <path clip-path="url(#pcd7d82f759)" d="M 60.013977 276.321766 
L 60.013977 276.318415 
" style="fill:none;stroke:#ff0000;stroke-width:0.5;"/>
    <path clip-path="url(#pcd7d82f759)" d="M 89.528027 276.285161 
L 89.528027 276.278561 
" style="fill:none;stroke:#ff0000;stroke-width:0.5;"/>
    <path clip-path="url(#pcd7d82f759)" d="M 119.042076 276.192012 
L 119.042076 276.186025 
" style="fill:none;stroke:#ff0000;stroke-width:0.5;"/>
    <path clip-path="url(#pcd7d82f759)" d="M 148.556126 275.98014 
L 148.556126 275.914916 
" style="fill:none;stroke:#ff0000;stroke-width:0.5;"/>
    <path clip-path="url(#pcd7d82f759)" d="M 178.070176 275.644049 
L 178.070176 275.538817 
" style="fill:none;stroke:#ff0000;stroke-width:0.5;"/>
    <path clip-path="url(#pcd7d82f759)" d="M 207.584225 274.524454 
L 207.584225 274.115395 
" style="fill:none;stroke:#ff0000;stroke-width:0.5;"/>
    <path clip-path="url(#pcd7d82f759)" d="M 237.098275 272.39954 
L 237.098275 271.292699 
" style="fill:none;stroke:#ff0000;stroke-width:0.5;"/>
    <path clip-path="url(#pcd7d82f759)" d="M 266.612324 267.486281 
L 266.612324 265.67342 
" style="fill:none;stroke:#ff0000;stroke-width:0.5;"/>
    <path clip-path="url(#pcd7d82f759)" d="M 296.126374 257.028705 
L 296.126374 253.222612 
" style="fill:none;stroke:#ff0000;stroke-width:0.5;"/>
    <path clip-path="url(#pcd7d82f759)" d="M 325.640424 231.969475 
L 325.640424 230.428614 
" style="fill:none;stroke:#ff0000;stroke-width:0.5;"/>
    <path clip-path="url(#pcd7d82f759)" d="M 355.154473 179.577301 
L 355.154473 149.44099 
" style="fill:none;stroke:#ff0000;stroke-width:0.5;"/>
    <path clip-path="url(#pcd7d82f759)" d="M 384.668523 64.034252 
L 384.668523 34.414125 
" style="fill:none;stroke:#ff0000;stroke-width:0.5;"/>
   </g>
   <g id="LineCollection_2">
    <path clip-path="url(#pcd7d82f759)" d="M 60.013977 276.334125 
L 60.013977 276.333989 
" style="fill:none;stroke:#ff0000;stroke-width:0.5;"/>
    <path clip-path="url(#pcd7d82f759)" d="M 89.528027 276.327245 
L 89.528027 276.32688 
" style="fill:none;stroke:#ff0000;stroke-width:0.5;"/>
    <path clip-path="url(#pcd7d82f759)" d="M 119.042076 276.312942 
L 119.042076 276.308533 
" style="fill:none;stroke:#ff0000;stroke-width:0.5;"/>
    <path clip-path="url(#pcd7d82f759)" d="M 148.556126 276.277251 
L 148.556126 276.274256 
" style="fill:none;stroke:#ff0000;stroke-width:0.5;"/>
    <path clip-path="url(#pcd7d82f759)" d="M 178.070176 276.199305 
L 178.070176 276.193256 
" style="fill:none;stroke:#ff0000;stroke-width:0.5;"/>
    <path clip-path="url(#pcd7d82f759)" d="M 207.584225 276.026309 
L 207.584225 276.005823 
" style="fill:none;stroke:#ff0000;stroke-width:0.5;"/>
    <path clip-path="url(#pcd7d82f759)" d="M 237.098275 275.63945 
L 237.098275 275.607458 
" style="fill:none;stroke:#ff0000;stroke-width:0.5;"/>
    <path clip-path="url(#pcd7d82f759)" d="M 266.612324 274.930085 
L 266.612324 274.469299 
" style="fill:none;stroke:#ff0000;stroke-width:0.5;"/>
    <path clip-path="url(#pcd7d82f759)" d="M 296.126374 273.04292 
L 296.126374 272.59937 
" style="fill:none;stroke:#ff0000;stroke-width:0.5;"/>
    <path clip-path="url(#pcd7d82f759)" d="M 325.640424 268.973626 
L 325.640424 268.304231 
" style="fill:none;stroke:#ff0000;stroke-width:0.5;"/>
    <path clip-path="url(#pcd7d82f759)" d="M 355.154473 260.35289 
L 355.154473 258.17204 
" style="fill:none;stroke:#ff0000;stroke-width:0.5;"/>
    <path clip-path="url(#pcd7d82f759)" d="M 384.668523 241.107905 
L 384.668523 236.723712 
" style="fill:none;stroke:#ff0000;stroke-width:0.5;"/>
   </g>
   <g id="line2d_29">
    <path clip-path="url(#pcd7d82f759)" d="M 60.013977 276.32009 
L 89.528027 276.281861 
L 119.042076 276.189018 
L 148.556126 275.947528 
L 178.070176 275.591433 
L 207.584225 274.319924 
L 237.098275 271.846119 
L 266.612324 266.579851 
L 296.126374 255.125658 
L 325.640424 231.199044 
L 355.154473 164.509146 
L 384.668523 49.224188 
" style="fill:none;stroke:#e41a1c;stroke-linecap:square;stroke-width:1.5;"/>
    <defs>
     <path d="M 0 1.25 
C 0.331504 1.25 0.649475 1.118292 0.883883 0.883883 
C 1.118292 0.649475 1.25 0.331504 1.25 0 
C 1.25 -0.331504 1.118292 -0.649475 0.883883 -0.883883 
C 0.649475 -1.118292 0.331504 -1.25 0 -1.25 
C -0.331504 -1.25 -0.649475 -1.118292 -0.883883 -0.883883 
C -1.118292 -0.649475 -1.25 -0.331504 -1.25 0 
C -1.25 0.331504 -1.118292 0.649475 -0.883883 0.883883 
C -0.649475 1.118292 -0.331504 1.25 0 1.25 
z
" id="m7d24c00507" style="stroke:#e41a1c;"/>
    </defs>
    <g clip-path="url(#pcd7d82f759)">
     <use style="fill:#e41a1c;stroke:#e41a1c;" x="60.013977" xlink:href="#m7d24c00507" y="276.32009"/>
     <use style="fill:#e41a1c;stroke:#e41a1c;" x="89.528027" xlink:href="#m7d24c00507" y="276.281861"/>
     <use style="fill:#e41a1c;stroke:#e41a1c;" x="119.042076" xlink:href="#m7d24c00507" y="276.189018"/>
     <use style="fill:#e41a1c;stroke:#e41a1c;" x="148.556126" xlink:href="#m7d24c00507" y="275.947528"/>
     <use style="fill:#e41a1c;stroke:#e41a1c;" x="178.070176" xlink:href="#m7d24c00507" y="275.591433"/>
     <use style="fill:#e41a1c;stroke:#e41a1c;" x="207.584225" xlink:href="#m7d24c00507" y="274.319924"/>
     <use style="fill:#e41a1c;stroke:#e41a1c;" x="237.098275" xlink:href="#m7d24c00507" y="271.846119"/>
     <use style="fill:#e41a1c;stroke:#e41a1c;" x="266.612324" xlink:href="#m7d24c00507" y="266.579851"/>
     <use style="fill:#e41a1c;stroke:#e41a1c;" x="296.126374" xlink:href="#m7d24c00507" y="255.125658"/>
     <use style="fill:#e41a1c;stroke:#e41a1c;" x="325.640424" xlink:href="#m7d24c00507" y="231.199044"/>
     <use style="fill:#e41a1c;stroke:#e41a1c;" x="355.154473" xlink:href="#m7d24c00507" y="164.509146"/>
     <use style="fill:#e41a1c;stroke:#e41a1c;" x="384.668523" xlink:href="#m7d24c00507" y="49.224188"/>
    </g>
   </g>
   <g id="line2d_30">
    <defs>
     <path d="M 5 0 
L -5 -0 
" id="m0b3fdd4293" style="stroke:#ff0000;stroke-width:0.5;"/>
    </defs>
    <g clip-path="url(#pcd7d82f759)">
     <use style="fill:#ff0000;stroke:#ff0000;stroke-width:0.5;" x="60.013977" xlink:href="#m0b3fdd4293" y="276.321766"/>
     <use style="fill:#ff0000;stroke:#ff0000;stroke-width:0.5;" x="89.528027" xlink:href="#m0b3fdd4293" y="276.285161"/>
     <use style="fill:#ff0000;stroke:#ff0000;stroke-width:0.5;" x="119.042076" xlink:href="#m0b3fdd4293" y="276.192012"/>
     <use style="fill:#ff0000;stroke:#ff0000;stroke-width:0.5;" x="148.556126" xlink:href="#m0b3fdd4293" y="275.98014"/>
     <use style="fill:#ff0000;stroke:#ff0000;stroke-width:0.5;" x="178.070176" xlink:href="#m0b3fdd4293" y="275.644049"/>
     <use style="fill:#ff0000;stroke:#ff0000;stroke-width:0.5;" x="207.584225" xlink:href="#m0b3fdd4293" y="274.524454"/>
     <use style="fill:#ff0000;stroke:#ff0000;stroke-width:0.5;" x="237.098275" xlink:href="#m0b3fdd4293" y="272.39954"/>
     <use style="fill:#ff0000;stroke:#ff0000;stroke-width:0.5;" x="266.612324" xlink:href="#m0b3fdd4293" y="267.486281"/>
     <use style="fill:#ff0000;stroke:#ff0000;stroke-width:0.5;" x="296.126374" xlink:href="#m0b3fdd4293" y="257.028705"/>
     <use style="fill:#ff0000;stroke:#ff0000;stroke-width:0.5;" x="325.640424" xlink:href="#m0b3fdd4293" y="231.969475"/>
     <use style="fill:#ff0000;stroke:#ff0000;stroke-width:0.5;" x="355.154473" xlink:href="#m0b3fdd4293" y="179.577301"/>
     <use style="fill:#ff0000;stroke:#ff0000;stroke-width:0.5;" x="384.668523" xlink:href="#m0b3fdd4293" y="64.034252"/>
    </g>
   </g>
   <g id="line2d_31">
    <g clip-path="url(#pcd7d82f759)">
     <use style="fill:#ff0000;stroke:#ff0000;stroke-width:0.5;" x="60.013977" xlink:href="#m0b3fdd4293" y="276.318415"/>
     <use style="fill:#ff0000;stroke:#ff0000;stroke-width:0.5;" x="89.528027" xlink:href="#m0b3fdd4293" y="276.278561"/>
     <use style="fill:#ff0000;stroke:#ff0000;stroke-width:0.5;" x="119.042076" xlink:href="#m0b3fdd4293" y="276.186025"/>
     <use style="fill:#ff0000;stroke:#ff0000;stroke-width:0.5;" x="148.556126" xlink:href="#m0b3fdd4293" y="275.914916"/>
     <use style="fill:#ff0000;stroke:#ff0000;stroke-width:0.5;" x="178.070176" xlink:href="#m0b3fdd4293" y="275.538817"/>
     <use style="fill:#ff0000;stroke:#ff0000;stroke-width:0.5;" x="207.584225" xlink:href="#m0b3fdd4293" y="274.115395"/>
     <use style="fill:#ff0000;stroke:#ff0000;stroke-width:0.5;" x="237.098275" xlink:href="#m0b3fdd4293" y="271.292699"/>
     <use style="fill:#ff0000;stroke:#ff0000;stroke-width:0.5;" x="266.612324" xlink:href="#m0b3fdd4293" y="265.67342"/>
     <use style="fill:#ff0000;stroke:#ff0000;stroke-width:0.5;" x="296.126374" xlink:href="#m0b3fdd4293" y="253.222612"/>
     <use style="fill:#ff0000;stroke:#ff0000;stroke-width:0.5;" x="325.640424" xlink:href="#m0b3fdd4293" y="230.428614"/>
     <use style="fill:#ff0000;stroke:#ff0000;stroke-width:0.5;" x="355.154473" xlink:href="#m0b3fdd4293" y="149.44099"/>
     <use style="fill:#ff0000;stroke:#ff0000;stroke-width:0.5;" x="384.668523" xlink:href="#m0b3fdd4293" y="34.414125"/>
    </g>
   </g>
   <g id="line2d_32">
    <path clip-path="url(#pcd7d82f759)" d="M 60.013977 276.334057 
L 89.528027 276.327063 
L 119.042076 276.310738 
L 148.556126 276.275754 
L 178.070176 276.19628 
L 207.584225 276.016066 
L 237.098275 275.623454 
L 266.612324 274.699692 
L 296.126374 272.821145 
L 325.640424 268.638928 
L 355.154473 259.262465 
L 384.668523 238.915808 
" style="fill:none;stroke:#377eb8;stroke-linecap:square;stroke-width:1.5;"/>
    <defs>
     <path d="M 0 1.25 
C 0.331504 1.25 0.649475 1.118292 0.883883 0.883883 
C 1.118292 0.649475 1.25 0.331504 1.25 0 
C 1.25 -0.331504 1.118292 -0.649475 0.883883 -0.883883 
C 0.649475 -1.118292 0.331504 -1.25 0 -1.25 
C -0.331504 -1.25 -0.649475 -1.118292 -0.883883 -0.883883 
C -1.118292 -0.649475 -1.25 -0.331504 -1.25 0 
C -1.25 0.331504 -1.118292 0.649475 -0.883883 0.883883 
C -0.649475 1.118292 -0.331504 1.25 0 1.25 
z
" id="m540260523d" style="stroke:#377eb8;"/>
    </defs>
    <g clip-path="url(#pcd7d82f759)">
     <use style="fill:#377eb8;stroke:#377eb8;" x="60.013977" xlink:href="#m540260523d" y="276.334057"/>
     <use style="fill:#377eb8;stroke:#377eb8;" x="89.528027" xlink:href="#m540260523d" y="276.327063"/>
     <use style="fill:#377eb8;stroke:#377eb8;" x="119.042076" xlink:href="#m540260523d" y="276.310738"/>
     <use style="fill:#377eb8;stroke:#377eb8;" x="148.556126" xlink:href="#m540260523d" y="276.275754"/>
     <use style="fill:#377eb8;stroke:#377eb8;" x="178.070176" xlink:href="#m540260523d" y="276.19628"/>
     <use style="fill:#377eb8;stroke:#377eb8;" x="207.584225" xlink:href="#m540260523d" y="276.016066"/>
     <use style="fill:#377eb8;stroke:#377eb8;" x="237.098275" xlink:href="#m540260523d" y="275.623454"/>
     <use style="fill:#377eb8;stroke:#377eb8;" x="266.612324" xlink:href="#m540260523d" y="274.699692"/>
     <use style="fill:#377eb8;stroke:#377eb8;" x="296.126374" xlink:href="#m540260523d" y="272.821145"/>
     <use style="fill:#377eb8;stroke:#377eb8;" x="325.640424" xlink:href="#m540260523d" y="268.638928"/>
     <use style="fill:#377eb8;stroke:#377eb8;" x="355.154473" xlink:href="#m540260523d" y="259.262465"/>
     <use style="fill:#377eb8;stroke:#377eb8;" x="384.668523" xlink:href="#m540260523d" y="238.915808"/>
    </g>
   </g>
   <g id="line2d_33">
    <g clip-path="url(#pcd7d82f759)">
     <use style="fill:#ff0000;stroke:#ff0000;stroke-width:0.5;" x="60.013977" xlink:href="#m0b3fdd4293" y="276.334125"/>
     <use style="fill:#ff0000;stroke:#ff0000;stroke-width:0.5;" x="89.528027" xlink:href="#m0b3fdd4293" y="276.327245"/>
     <use style="fill:#ff0000;stroke:#ff0000;stroke-width:0.5;" x="119.042076" xlink:href="#m0b3fdd4293" y="276.312942"/>
     <use style="fill:#ff0000;stroke:#ff0000;stroke-width:0.5;" x="148.556126" xlink:href="#m0b3fdd4293" y="276.277251"/>
     <use style="fill:#ff0000;stroke:#ff0000;stroke-width:0.5;" x="178.070176" xlink:href="#m0b3fdd4293" y="276.199305"/>
     <use style="fill:#ff0000;stroke:#ff0000;stroke-width:0.5;" x="207.584225" xlink:href="#m0b3fdd4293" y="276.026309"/>
     <use style="fill:#ff0000;stroke:#ff0000;stroke-width:0.5;" x="237.098275" xlink:href="#m0b3fdd4293" y="275.63945"/>
     <use style="fill:#ff0000;stroke:#ff0000;stroke-width:0.5;" x="266.612324" xlink:href="#m0b3fdd4293" y="274.930085"/>
     <use style="fill:#ff0000;stroke:#ff0000;stroke-width:0.5;" x="296.126374" xlink:href="#m0b3fdd4293" y="273.04292"/>
     <use style="fill:#ff0000;stroke:#ff0000;stroke-width:0.5;" x="325.640424" xlink:href="#m0b3fdd4293" y="268.973626"/>
     <use style="fill:#ff0000;stroke:#ff0000;stroke-width:0.5;" x="355.154473" xlink:href="#m0b3fdd4293" y="260.35289"/>
     <use style="fill:#ff0000;stroke:#ff0000;stroke-width:0.5;" x="384.668523" xlink:href="#m0b3fdd4293" y="241.107905"/>
    </g>
   </g>
   <g id="line2d_34">
    <g clip-path="url(#pcd7d82f759)">
     <use style="fill:#ff0000;stroke:#ff0000;stroke-width:0.5;" x="60.013977" xlink:href="#m0b3fdd4293" y="276.333989"/>
     <use style="fill:#ff0000;stroke:#ff0000;stroke-width:0.5;" x="89.528027" xlink:href="#m0b3fdd4293" y="276.32688"/>
     <use style="fill:#ff0000;stroke:#ff0000;stroke-width:0.5;" x="119.042076" xlink:href="#m0b3fdd4293" y="276.308533"/>
     <use style="fill:#ff0000;stroke:#ff0000;stroke-width:0.5;" x="148.556126" xlink:href="#m0b3fdd4293" y="276.274256"/>
     <use style="fill:#ff0000;stroke:#ff0000;stroke-width:0.5;" x="178.070176" xlink:href="#m0b3fdd4293" y="276.193256"/>
     <use style="fill:#ff0000;stroke:#ff0000;stroke-width:0.5;" x="207.584225" xlink:href="#m0b3fdd4293" y="276.005823"/>
     <use style="fill:#ff0000;stroke:#ff0000;stroke-width:0.5;" x="237.098275" xlink:href="#m0b3fdd4293" y="275.607458"/>
     <use style="fill:#ff0000;stroke:#ff0000;stroke-width:0.5;" x="266.612324" xlink:href="#m0b3fdd4293" y="274.469299"/>
     <use style="fill:#ff0000;stroke:#ff0000;stroke-width:0.5;" x="296.126374" xlink:href="#m0b3fdd4293" y="272.59937"/>
     <use style="fill:#ff0000;stroke:#ff0000;stroke-width:0.5;" x="325.640424" xlink:href="#m0b3fdd4293" y="268.304231"/>
     <use style="fill:#ff0000;stroke:#ff0000;stroke-width:0.5;" x="355.154473" xlink:href="#m0b3fdd4293" y="258.17204"/>
     <use style="fill:#ff0000;stroke:#ff0000;stroke-width:0.5;" x="384.668523" xlink:href="#m0b3fdd4293" y="236.723712"/>
    </g>
   </g>
   <g id="patch_3">
    <path d="M 43.78125 288.430125 
L 43.78125 22.318125 
" style="fill:none;stroke:#000000;stroke-linecap:square;stroke-linejoin:miter;stroke-width:0.8;"/>
   </g>
   <g id="patch_4">
    <path d="M 400.90125 288.430125 
L 400.90125 22.318125 
" style="fill:none;stroke:#000000;stroke-linecap:square;stroke-linejoin:miter;stroke-width:0.8;"/>
   </g>
   <g id="patch_5">
    <path d="M 43.78125 288.430125 
L 400.90125 288.430125 
" style="fill:none;stroke:#000000;stroke-linecap:square;stroke-linejoin:miter;stroke-width:0.8;"/>
   </g>
   <g id="patch_6">
    <path d="M 43.78125 22.318125 
L 400.90125 22.318125 
" style="fill:none;stroke:#000000;stroke-linecap:square;stroke-linejoin:miter;stroke-width:0.8;"/>
   </g>
   <g id="text_18">
    <!-- Caching Muliplication -->
    <defs>
     <path d="M 64.40625 67.28125 
L 64.40625 56.890625 
Q 59.421875 61.53125 53.78125 63.8125 
Q 48.140625 66.109375 41.796875 66.109375 
Q 29.296875 66.109375 22.65625 58.46875 
Q 16.015625 50.828125 16.015625 36.375 
Q 16.015625 21.96875 22.65625 14.328125 
Q 29.296875 6.6875 41.796875 6.6875 
Q 48.140625 6.6875 53.78125 8.984375 
Q 59.421875 11.28125 64.40625 15.921875 
L 64.40625 5.609375 
Q 59.234375 2.09375 53.4375 0.328125 
Q 47.65625 -1.421875 41.21875 -1.421875 
Q 24.65625 -1.421875 15.125 8.703125 
Q 5.609375 18.84375 5.609375 36.375 
Q 5.609375 53.953125 15.125 64.078125 
Q 24.65625 74.21875 41.21875 74.21875 
Q 47.75 74.21875 53.53125 72.484375 
Q 59.328125 70.75 64.40625 67.28125 
z
" id="DejaVuSans-67"/>
     <path d="M 34.28125 27.484375 
Q 23.390625 27.484375 19.1875 25 
Q 14.984375 22.515625 14.984375 16.5 
Q 14.984375 11.71875 18.140625 8.90625 
Q 21.296875 6.109375 26.703125 6.109375 
Q 34.1875 6.109375 38.703125 11.40625 
Q 43.21875 16.703125 43.21875 25.484375 
L 43.21875 27.484375 
z
M 52.203125 31.203125 
L 52.203125 0 
L 43.21875 0 
L 43.21875 8.296875 
Q 40.140625 3.328125 35.546875 0.953125 
Q 30.953125 -1.421875 24.3125 -1.421875 
Q 15.921875 -1.421875 10.953125 3.296875 
Q 6 8.015625 6 15.921875 
Q 6 25.140625 12.171875 29.828125 
Q 18.359375 34.515625 30.609375 34.515625 
L 43.21875 34.515625 
L 43.21875 35.40625 
Q 43.21875 41.609375 39.140625 45 
Q 35.0625 48.390625 27.6875 48.390625 
Q 23 48.390625 18.546875 47.265625 
Q 14.109375 46.140625 10.015625 43.890625 
L 10.015625 52.203125 
Q 14.9375 54.109375 19.578125 55.046875 
Q 24.21875 56 28.609375 56 
Q 40.484375 56 46.34375 49.84375 
Q 52.203125 43.703125 52.203125 31.203125 
z
" id="DejaVuSans-97"/>
     <path d="M 48.78125 52.59375 
L 48.78125 44.1875 
Q 44.96875 46.296875 41.140625 47.34375 
Q 37.3125 48.390625 33.40625 48.390625 
Q 24.65625 48.390625 19.8125 42.84375 
Q 14.984375 37.3125 14.984375 27.296875 
Q 14.984375 17.28125 19.8125 11.734375 
Q 24.65625 6.203125 33.40625 6.203125 
Q 37.3125 6.203125 41.140625 7.25 
Q 44.96875 8.296875 48.78125 10.40625 
L 48.78125 2.09375 
Q 45.015625 0.34375 40.984375 -0.53125 
Q 36.96875 -1.421875 32.421875 -1.421875 
Q 20.0625 -1.421875 12.78125 6.34375 
Q 5.515625 14.109375 5.515625 27.296875 
Q 5.515625 40.671875 12.859375 48.328125 
Q 20.21875 56 33.015625 56 
Q 37.15625 56 41.109375 55.140625 
Q 45.0625 54.296875 48.78125 52.59375 
z
" id="DejaVuSans-99"/>
     <path d="M 54.890625 33.015625 
L 54.890625 0 
L 45.90625 0 
L 45.90625 32.71875 
Q 45.90625 40.484375 42.875 44.328125 
Q 39.84375 48.1875 33.796875 48.1875 
Q 26.515625 48.1875 22.3125 43.546875 
Q 18.109375 38.921875 18.109375 30.90625 
L 18.109375 0 
L 9.078125 0 
L 9.078125 75.984375 
L 18.109375 75.984375 
L 18.109375 46.1875 
Q 21.34375 51.125 25.703125 53.5625 
Q 30.078125 56 35.796875 56 
Q 45.21875 56 50.046875 50.171875 
Q 54.890625 44.34375 54.890625 33.015625 
z
" id="DejaVuSans-104"/>
     <path d="M 45.40625 27.984375 
Q 45.40625 37.75 41.375 43.109375 
Q 37.359375 48.484375 30.078125 48.484375 
Q 22.859375 48.484375 18.828125 43.109375 
Q 14.796875 37.75 14.796875 27.984375 
Q 14.796875 18.265625 18.828125 12.890625 
Q 22.859375 7.515625 30.078125 7.515625 
Q 37.359375 7.515625 41.375 12.890625 
Q 45.40625 18.265625 45.40625 27.984375 
z
M 54.390625 6.78125 
Q 54.390625 -7.171875 48.1875 -13.984375 
Q 42 -20.796875 29.203125 -20.796875 
Q 24.46875 -20.796875 20.265625 -20.09375 
Q 16.0625 -19.390625 12.109375 -17.921875 
L 12.109375 -9.1875 
Q 16.0625 -11.328125 19.921875 -12.34375 
Q 23.78125 -13.375 27.78125 -13.375 
Q 36.625 -13.375 41.015625 -8.765625 
Q 45.40625 -4.15625 45.40625 5.171875 
L 45.40625 9.625 
Q 42.625 4.78125 38.28125 2.390625 
Q 33.9375 0 27.875 0 
Q 17.828125 0 11.671875 7.65625 
Q 5.515625 15.328125 5.515625 27.984375 
Q 5.515625 40.671875 11.671875 48.328125 
Q 17.828125 56 27.875 56 
Q 33.9375 56 38.28125 53.609375 
Q 42.625 51.21875 45.40625 46.390625 
L 45.40625 54.6875 
L 54.390625 54.6875 
z
" id="DejaVuSans-103"/>
     <path d="M 9.8125 72.90625 
L 24.515625 72.90625 
L 43.109375 23.296875 
L 61.8125 72.90625 
L 76.515625 72.90625 
L 76.515625 0 
L 66.890625 0 
L 66.890625 64.015625 
L 48.09375 14.015625 
L 38.1875 14.015625 
L 19.390625 64.015625 
L 19.390625 0 
L 9.8125 0 
z
" id="DejaVuSans-77"/>
     <path d="M 8.5 21.578125 
L 8.5 54.6875 
L 17.484375 54.6875 
L 17.484375 21.921875 
Q 17.484375 14.15625 20.5 10.265625 
Q 23.53125 6.390625 29.59375 6.390625 
Q 36.859375 6.390625 41.078125 11.03125 
Q 45.3125 15.671875 45.3125 23.6875 
L 45.3125 54.6875 
L 54.296875 54.6875 
L 54.296875 0 
L 45.3125 0 
L 45.3125 8.40625 
Q 42.046875 3.421875 37.71875 1 
Q 33.40625 -1.421875 27.6875 -1.421875 
Q 18.265625 -1.421875 13.375 4.4375 
Q 8.5 10.296875 8.5 21.578125 
z
M 31.109375 56 
z
" id="DejaVuSans-117"/>
     <path d="M 9.421875 75.984375 
L 18.40625 75.984375 
L 18.40625 0 
L 9.421875 0 
z
" id="DejaVuSans-108"/>
     <path d="M 18.109375 8.203125 
L 18.109375 -20.796875 
L 9.078125 -20.796875 
L 9.078125 54.6875 
L 18.109375 54.6875 
L 18.109375 46.390625 
Q 20.953125 51.265625 25.265625 53.625 
Q 29.59375 56 35.59375 56 
Q 45.5625 56 51.78125 48.09375 
Q 58.015625 40.1875 58.015625 27.296875 
Q 58.015625 14.40625 51.78125 6.484375 
Q 45.5625 -1.421875 35.59375 -1.421875 
Q 29.59375 -1.421875 25.265625 0.953125 
Q 20.953125 3.328125 18.109375 8.203125 
z
M 48.6875 27.296875 
Q 48.6875 37.203125 44.609375 42.84375 
Q 40.53125 48.484375 33.40625 48.484375 
Q 26.265625 48.484375 22.1875 42.84375 
Q 18.109375 37.203125 18.109375 27.296875 
Q 18.109375 17.390625 22.1875 11.75 
Q 26.265625 6.109375 33.40625 6.109375 
Q 40.53125 6.109375 44.609375 11.75 
Q 48.6875 17.390625 48.6875 27.296875 
z
" id="DejaVuSans-112"/>
    </defs>
    <g transform="translate(158.263125 16.318125)scale(0.12 -0.12)">
     <use xlink:href="#DejaVuSans-67"/>
     <use x="69.824219" xlink:href="#DejaVuSans-97"/>
     <use x="131.103516" xlink:href="#DejaVuSans-99"/>
     <use x="186.083984" xlink:href="#DejaVuSans-104"/>
     <use x="249.462891" xlink:href="#DejaVuSans-105"/>
     <use x="277.246094" xlink:href="#DejaVuSans-110"/>
     <use x="340.625" xlink:href="#DejaVuSans-103"/>
     <use x="404.101562" xlink:href="#DejaVuSans-32"/>
     <use x="435.888672" xlink:href="#DejaVuSans-77"/>
     <use x="522.167969" xlink:href="#DejaVuSans-117"/>
     <use x="585.546875" xlink:href="#DejaVuSans-108"/>
     <use x="613.330078" xlink:href="#DejaVuSans-105"/>
     <use x="641.113281" xlink:href="#DejaVuSans-112"/>
     <use x="704.589844" xlink:href="#DejaVuSans-108"/>
     <use x="732.373047" xlink:href="#DejaVuSans-105"/>
     <use x="760.15625" xlink:href="#DejaVuSans-99"/>
     <use x="815.136719" xlink:href="#DejaVuSans-97"/>
     <use x="876.416016" xlink:href="#DejaVuSans-116"/>
     <use x="915.625" xlink:href="#DejaVuSans-105"/>
     <use x="943.408203" xlink:href="#DejaVuSans-111"/>
     <use x="1004.589844" xlink:href="#DejaVuSans-110"/>
    </g>
   </g>
   <g id="legend_1">
    <g id="patch_7">
     <path d="M 425.75725 60.230625 
L 627.761938 60.230625 
Q 629.761938 60.230625 629.761938 58.230625 
L 629.761938 29.318125 
Q 629.761938 27.318125 627.761938 27.318125 
L 425.75725 27.318125 
Q 423.75725 27.318125 423.75725 29.318125 
L 423.75725 58.230625 
Q 423.75725 60.230625 425.75725 60.230625 
z
" style="fill:#ffffff;opacity:0.8;stroke:#cccccc;stroke-linejoin:miter;"/>
    </g>
    <g id="line2d_35">
     <path d="M 427.75725 35.416563 
L 447.75725 35.416563 
" style="fill:none;stroke:#e41a1c;stroke-linecap:square;stroke-width:1.5;"/>
    </g>
    <g id="line2d_36">
     <g>
      <use style="fill:#e41a1c;stroke:#e41a1c;" x="437.75725" xlink:href="#m7d24c00507" y="35.416563"/>
     </g>
    </g>
    <g id="text_19">
     <!-- with_product_cache(real_time) -->
     <defs>
      <path d="M 4.203125 54.6875 
L 13.1875 54.6875 
L 24.421875 12.015625 
L 35.59375 54.6875 
L 46.1875 54.6875 
L 57.421875 12.015625 
L 68.609375 54.6875 
L 77.59375 54.6875 
L 63.28125 0 
L 52.6875 0 
L 40.921875 44.828125 
L 29.109375 0 
L 18.5 0 
z
" id="DejaVuSans-119"/>
      <path d="M 50.984375 -16.609375 
L 50.984375 -23.578125 
L -0.984375 -23.578125 
L -0.984375 -16.609375 
z
" id="DejaVuSans-95"/>
      <path d="M 41.109375 46.296875 
Q 39.59375 47.171875 37.8125 47.578125 
Q 36.03125 48 33.890625 48 
Q 26.265625 48 22.1875 43.046875 
Q 18.109375 38.09375 18.109375 28.8125 
L 18.109375 0 
L 9.078125 0 
L 9.078125 54.6875 
L 18.109375 54.6875 
L 18.109375 46.1875 
Q 20.953125 51.171875 25.484375 53.578125 
Q 30.03125 56 36.53125 56 
Q 37.453125 56 38.578125 55.875 
Q 39.703125 55.765625 41.0625 55.515625 
z
" id="DejaVuSans-114"/>
      <path d="M 45.40625 46.390625 
L 45.40625 75.984375 
L 54.390625 75.984375 
L 54.390625 0 
L 45.40625 0 
L 45.40625 8.203125 
Q 42.578125 3.328125 38.25 0.953125 
Q 33.9375 -1.421875 27.875 -1.421875 
Q 17.96875 -1.421875 11.734375 6.484375 
Q 5.515625 14.40625 5.515625 27.296875 
Q 5.515625 40.1875 11.734375 48.09375 
Q 17.96875 56 27.875 56 
Q 33.9375 56 38.25 53.625 
Q 42.578125 51.265625 45.40625 46.390625 
z
M 14.796875 27.296875 
Q 14.796875 17.390625 18.875 11.75 
Q 22.953125 6.109375 30.078125 6.109375 
Q 37.203125 6.109375 41.296875 11.75 
Q 45.40625 17.390625 45.40625 27.296875 
Q 45.40625 37.203125 41.296875 42.84375 
Q 37.203125 48.484375 30.078125 48.484375 
Q 22.953125 48.484375 18.875 42.84375 
Q 14.796875 37.203125 14.796875 27.296875 
z
" id="DejaVuSans-100"/>
     </defs>
     <g transform="translate(455.75725 38.916563)scale(0.1 -0.1)">
      <use xlink:href="#DejaVuSans-119"/>
      <use x="81.787109" xlink:href="#DejaVuSans-105"/>
      <use x="109.570312" xlink:href="#DejaVuSans-116"/>
      <use x="148.779297" xlink:href="#DejaVuSans-104"/>
      <use x="212.158203" xlink:href="#DejaVuSans-95"/>
      <use x="262.158203" xlink:href="#DejaVuSans-112"/>
      <use x="325.634766" xlink:href="#DejaVuSans-114"/>
      <use x="364.498047" xlink:href="#DejaVuSans-111"/>
      <use x="425.679688" xlink:href="#DejaVuSans-100"/>
      <use x="489.15625" xlink:href="#DejaVuSans-117"/>
      <use x="552.535156" xlink:href="#DejaVuSans-99"/>
      <use x="607.515625" xlink:href="#DejaVuSans-116"/>
      <use x="646.724609" xlink:href="#DejaVuSans-95"/>
      <use x="696.724609" xlink:href="#DejaVuSans-99"/>
      <use x="751.705078" xlink:href="#DejaVuSans-97"/>
      <use x="812.984375" xlink:href="#DejaVuSans-99"/>
      <use x="867.964844" xlink:href="#DejaVuSans-104"/>
      <use x="931.34375" xlink:href="#DejaVuSans-101"/>
      <use x="992.867188" xlink:href="#DejaVuSans-40"/>
      <use x="1031.880859" xlink:href="#DejaVuSans-114"/>
      <use x="1070.744141" xlink:href="#DejaVuSans-101"/>
      <use x="1132.267578" xlink:href="#DejaVuSans-97"/>
      <use x="1193.546875" xlink:href="#DejaVuSans-108"/>
      <use x="1221.330078" xlink:href="#DejaVuSans-95"/>
      <use x="1271.330078" xlink:href="#DejaVuSans-116"/>
      <use x="1310.539062" xlink:href="#DejaVuSans-105"/>
      <use x="1338.322266" xlink:href="#DejaVuSans-109"/>
      <use x="1435.734375" xlink:href="#DejaVuSans-101"/>
      <use x="1497.257812" xlink:href="#DejaVuSans-41"/>
     </g>
    </g>
    <g id="line2d_37">
     <path d="M 427.75725 50.372813 
L 447.75725 50.372813 
" style="fill:none;stroke:#377eb8;stroke-linecap:square;stroke-width:1.5;"/>
    </g>
    <g id="line2d_38">
     <g>
      <use style="fill:#377eb8;stroke:#377eb8;" x="437.75725" xlink:href="#m540260523d" y="50.372813"/>
     </g>
    </g>
    <g id="text_20">
     <!-- without_product_cache(real_time) -->
     <g transform="translate(455.75725 53.872813)scale(0.1 -0.1)">
      <use xlink:href="#DejaVuSans-119"/>
      <use x="81.787109" xlink:href="#DejaVuSans-105"/>
      <use x="109.570312" xlink:href="#DejaVuSans-116"/>
      <use x="148.779297" xlink:href="#DejaVuSans-104"/>
      <use x="212.158203" xlink:href="#DejaVuSans-111"/>
      <use x="273.339844" xlink:href="#DejaVuSans-117"/>
      <use x="336.71875" xlink:href="#DejaVuSans-116"/>
      <use x="375.927734" xlink:href="#DejaVuSans-95"/>
      <use x="425.927734" xlink:href="#DejaVuSans-112"/>
      <use x="489.404297" xlink:href="#DejaVuSans-114"/>
      <use x="528.267578" xlink:href="#DejaVuSans-111"/>
      <use x="589.449219" xlink:href="#DejaVuSans-100"/>
      <use x="652.925781" xlink:href="#DejaVuSans-117"/>
      <use x="716.304688" xlink:href="#DejaVuSans-99"/>
      <use x="771.285156" xlink:href="#DejaVuSans-116"/>
      <use x="810.494141" xlink:href="#DejaVuSans-95"/>
      <use x="860.494141" xlink:href="#DejaVuSans-99"/>
      <use x="915.474609" xlink:href="#DejaVuSans-97"/>
      <use x="976.753906" xlink:href="#DejaVuSans-99"/>
      <use x="1031.734375" xlink:href="#DejaVuSans-104"/>
      <use x="1095.113281" xlink:href="#DejaVuSans-101"/>
      <use x="1156.636719" xlink:href="#DejaVuSans-40"/>
      <use x="1195.650391" xlink:href="#DejaVuSans-114"/>
      <use x="1234.513672" xlink:href="#DejaVuSans-101"/>
      <use x="1296.037109" xlink:href="#DejaVuSans-97"/>
      <use x="1357.316406" xlink:href="#DejaVuSans-108"/>
      <use x="1385.099609" xlink:href="#DejaVuSans-95"/>
      <use x="1435.099609" xlink:href="#DejaVuSans-116"/>
      <use x="1474.308594" xlink:href="#DejaVuSans-105"/>
      <use x="1502.091797" xlink:href="#DejaVuSans-109"/>
      <use x="1599.503906" xlink:href="#DejaVuSans-101"/>
      <use x="1661.027344" xlink:href="#DejaVuSans-41"/>
     </g>
    </g>
   </g>
  </g>
 </g>
 <defs>
  <clipPath id="pcd7d82f759">
   <rect height="266.112" width="357.12" x="43.78125" y="22.318125"/>
  </clipPath>
 </defs>
</svg>
